<svg id="レイヤー_1" data-name="レイヤー 1" xmlns="http://www.w3.org/2000/svg" viewBox="0 0 412.5 167.99"><defs><style>.cls-1{fill:#3e3a39}.cls-2{fill:#ea63a0}</style></defs><title>kunoichi</title><path class="cls-1" d="M12.7 106.53V66.47a5.41 5.41 0 0 1 5.41-5.41 5.41 5.41 0 0 1 5.41 5.41v17.19L43.89 62.6a5.07 5.07 0 0 1 3.64-1.54 5.07 5.07 0 0 1 3.55 8.69L37.72 83l15.16 20a5.7 5.7 0 0 1-4.71 8.93 5.7 5.7 0 0 1-4.85-2.71L30.26 90.14l-6.73 6.43v10a5.41 5.41 0 0 1-5.41 5.41 5.41 5.41 0 0 1-5.42-5.45zm61.35-45.2a5.41 5.41 0 0 1 5.41 5.41v20.92a54.25 54.25 0 0 0 .4 8.5 8.2 8.2 0 0 0 3.31 5 9 9 0 0 0 6.17 1.89c3.07 0 4.41-.6 6-1.79a7 7 0 0 0 2.82-4.39 54.41 54.41 0 0 0 .48-8.64V66.74a5.41 5.41 0 0 1 5.36-5.41 5.41 5.41 0 0 1 5.41 5.41v20.08q0 9.16-.88 12.95a14 14 0 0 1-3.24 6.39A16.38 16.38 0 0 1 99 110.3a23.28 23.28 0 0 1-9.33 1.54c-5.12 0-8-.56-10.67-1.68a16.61 16.61 0 0 1-6.27-4.37 13.76 13.76 0 0 1-3-5.64 58.74 58.74 0 0 1-1.06-12.91v-20.5a5.41 5.41 0 0 1 5.38-5.41zm50.53 45.59v-39a6.82 6.82 0 0 1 6.82-6.82 6.82 6.82 0 0 1 5.73 3.12L157.05 95V66a5 5 0 0 1 5-5 5 5 0 0 1 5 5v38.9a7 7 0 0 1-7 7 7 7 0 0 1-5.9-3.2l-19.53-30v28.16a5 5 0 0 1-5 5 5 5 0 0 1-5.04-4.94zm114.26-.39V81.21a5.41 5.41 0 0 1 5.41-5.41 5.41 5.41 0 0 1 5.41 5.41v25.33a5.41 5.41 0 0 1-5.41 5.41 5.41 5.41 0 0 1-5.41-5.42zm64.43-11.83a5.34 5.34 0 0 1 3.18 7.67 19.37 19.37 0 0 1-5.58 6.39q-5.61 4-14.24 4-10.68 0-17.55-6.92T262.19 87q0-12.7 6.91-19.73t18.17-7q9.84 0 16 5.52a15.59 15.59 0 0 1 2.35 2.65 5.31 5.31 0 0 1-3.24 8.17 5.45 5.45 0 0 1-5.81-2.61 10.33 10.33 0 0 0-2.51-2.72 11.77 11.77 0 0 0-7.33-2.28 12.49 12.49 0 0 0-9.67 4q-3.71 4.06-3.71 13.16 0 9.65 3.66 13.75a12.15 12.15 0 0 0 9.51 4.1 11.18 11.18 0 0 0 7.42-2.6 11.73 11.73 0 0 0 2.92-3.83 5.44 5.44 0 0 1 6.41-2.88zm18.06 11.83V66.47a5.41 5.41 0 0 1 5.41-5.41 5.41 5.41 0 0 1 5.41 5.41v14.62h21.21V66.47a5.41 5.41 0 0 1 5.41-5.41 5.41 5.41 0 0 1 5.41 5.41v40.06a5.41 5.41 0 0 1-5.41 5.41 5.41 5.41 0 0 1-5.41-5.41V89.7h-21.21v16.84a5.41 5.41 0 0 1-5.41 5.41 5.41 5.41 0 0 1-5.41-5.42z"/><path class="cls-2" d="M202.7 60.88c-25.31 0-13.24 25.67-25.31 25.67 0 25.31 25.67 13.24 25.67 25.31 25.31 0 13.24-25.67 25.31-25.67 0-25.31-25.67-13.24-25.67-25.31zm.18 34.95a9.46 9.46 0 1 1 9.56-9.46 9.52 9.52 0 0 1-9.56 9.46z"/><circle class="cls-2" cx="244.25" cy="66.47" r="5.41"/><path class="cls-1" d="M382.43 106.53V81.21a5.41 5.41 0 0 1 5.41-5.41 5.41 5.41 0 0 1 5.41 5.41v25.33a5.41 5.41 0 0 1-5.41 5.41 5.41 5.41 0 0 1-5.41-5.42z"/><circle class="cls-2" cx="387.84" cy="66.47" r="5.41"/></svg>