<svg id="レイヤー_1" data-name="レイヤー 1" xmlns="http://www.w3.org/2000/svg" viewBox="0 0 113.79 167.99"><defs><style>.cls-1,.cls-26{fill:none}.cls-2{fill:#b24b81}.cls-3{fill:#8e3b6b}.cls-4{fill:#da6095}.cls-5{fill:#efdfb8}.cls-6{fill:#1d1e1d}.cls-7{fill:#e4b9d6}.cls-8{fill:#b88db3}.cls-9{fill:#7b1e4f}.cls-10{fill:#c596c2}.cls-11{fill:#511437}.cls-12{fill:#9a8f46}.cls-13{fill:#6e632f}.cls-14{fill:#a44880}.cls-15{fill:#732c5a}.cls-16{clip-path:url(#clip-path)}.cls-17{fill:#5d4820}.cls-18{clip-path:url(#clip-path-2)}.cls-19{fill:#372910}.cls-20{fill:#303030}.cls-21{fill:#c671a9}.cls-22{fill:#c15388}.cls-23{clip-path:url(#clip-path-3)}.cls-24{fill:#9a4471}.cls-25{clip-path:url(#clip-path-4)}.cls-26{stroke:#a33971;stroke-miterlimit:10;stroke-width:.28px}.cls-27{clip-path:url(#clip-path-5)}.cls-28{fill:#a33971}</style><clipPath id="clip-path"><path id="SVGID" class="cls-1" d="M33.81 83.85S34.57 93.73 35 97s6.81 9.28 14.44 9.49 24.6-.88 27.48-14.9c1.13-3.84 1.8-7.37 1.8-7.37s.83 2.47 1.86 2.52 1.23-1.07 2.68-3.54c1.86-3.62 1.45-8.37-.41-9.4s-5.36 2.06-5.36 2.06.62-8.14-2.47-11.23-14.88-8.84-26.22-7.19-16 12.38-16.41 14.41.31 8.46 1.42 12z"/></clipPath><clipPath id="clip-path-2"><path id="SVGID-2" data-name="SVGID" class="cls-1" d="M34.21 95.18s-.46 2.68 3 1.65 4.12-3.06 7-3.28 6.2 2.73 7.22 3.52c3.06 2 9.34 2 13.47.14 6.58-2.39 13.75-13 13.75-13s0 11-5 16.5c-2.81 3.09-11.48 5.8-20.25 6.8-4.74.62-14.23-2.42-19.22-7.62z"/></clipPath><clipPath id="clip-path-3"><path id="SVGID-3" data-name="SVGID" class="cls-1" d="M63.69 40.89c-.66-2.41-3.05-7.47-6.13-7s-10.8-1-11.27 1.57-.09 3.37.67 4.22 0 4.58 0 4.94a4.44 4.44 0 0 0 3.36 3.09c2.25.28 6 1.79 8.08.53s5.29-7.35 5.29-7.35z"/></clipPath><clipPath id="clip-path-4"><path id="SVGID-4" data-name="SVGID" class="cls-1" d="M65.12 44.39c-.15 2.49.51 8.06 3.57 8.58s9.93 4.36 11.18 2.11 1.16-3.17.71-4.21 1.46-4.34 1.58-4.68a4.44 4.44 0 0 0-2.2-4c-2-1-5.1-3.61-7.49-3.08s-7.35 5.28-7.35 5.28z"/></clipPath><clipPath id="clip-path-5"><path id="SVGID-5" data-name="SVGID" class="cls-1" d="M60.79 41.94c-1.22 2.95-1.67 4.87-.95 5.93s4.52 2.54 6.31 1.82 2.59-.62 3.32-3.18a4.3 4.3 0 0 0-.68-4.06s-7.16-2.56-8-.51z"/></clipPath></defs><title>kunoichi</title><path class="cls-2" d="M62.75 106.5s10.55 13.86 13.35 14.76 8.19 1 10.17-.25c-4.61-.66-20.46-14.18-20.46-14.18L63 104.25l-2.07.92z"/><path class="cls-3" d="M62.65 104.7l5.98 6.32.38.48-2.7-2.41-3.94-4.75.28.36z"/><path class="cls-4" d="M74.74 120.38s3.26 3.62 11.2 1.15l4.14-2-7.74-1.31s-4.54 3.83-7.08 2.27a30.65 30.65 0 0 1-3.12-2.66z"/><path class="cls-2" d="M57.3 106.79s-17.22 2.61-19.36 4.63-4.78 6.72-4.66 9c2.79-3.73 22.26-11.16 22.26-11.16l3.61-1.21.18-2.26z"/><path class="cls-3" d="M52.47 108.54l-9.63 2.99-1.55 1.47 11.48-4.37.09-.27-.39.18z"/><path class="cls-4" d="M39.37 110.65s-4.72 1.14-6.38 9.28l-.25 4.58 4.87-6.17s-1.18-5.82 1.4-7.3a30.66 30.66 0 0 1 3.83-1.46z"/><path class="cls-5" d="M65.42 127.47s1.65 6.39 1.44 8.39-1.17 3.37-2.27 3.09-1.65.21-2.27-1.51-2-7.66-2.34-8.11-3.16-2.35-1.86-3.1 7.04.15 7.3 1.24z"/><path class="cls-6" d="M66.88 135.15l-5.12.4a12.32 12.32 0 0 0 .82 2.6c.44 1.18 2.68.91 2.68.91s2.11-.36 1.62-3.91z"/><path class="cls-5" d="M50.41 127.52s-1.65 6.39-1.44 8.39 1.17 3.37 2.27 3.09 1.65.21 2.27-1.51 2-7.66 2.34-8.11 3.15-2.38 1.85-3.1-7.02.15-7.29 1.24z"/><path class="cls-6" d="M48.95 135.2l5.12.4a12.32 12.32 0 0 1-.82 2.6c-.44 1.18-2.68.91-2.68.91s-2.11-.36-1.62-3.91z"/><path class="cls-5" d="M52.19 106.16s-4.72 7.69-5.38 9.46-2.41 4.55-2.78 5.43a3.09 3.09 0 0 0 .32 3.21c.85.85 3.15-.55 3.6-1.79s2.19-4.27 3-6 3.21-8.32 3-9.52-1.23-1.46-1.76-.79z"/><path class="cls-7" d="M47.19 114.79l3.7 1.86-2.64 5.09-3.65-1.81a45.1 45.1 0 0 0 2.59-5.14z"/><path class="cls-8" d="M49.82 116.12s.08.06 1.07.53l-2.64 5.09-.91-.45z"/><path class="cls-5" d="M64.15 105.18s4.72 7.69 5.38 9.46 2.41 4.55 2.78 5.43a3.09 3.09 0 0 1-.32 3.21c-.85.85-3.15-.55-3.6-1.79s-2.19-4.27-3-6-3.21-8.32-3-9.52 1.23-1.46 1.76-.79z"/><path class="cls-7" d="M69.15 113.8l-3.7 1.86 2.64 5.09 3.65-1.81a45.09 45.09 0 0 1-2.59-5.14z"/><path class="cls-8" d="M66.52 115.14s-.08.06-1.07.53l2.64 5.09.91-.45z"/><path class="cls-9" d="M53.27 106.71s-3 7.81-2.76 11.52a26.35 26.35 0 0 1 0 4.88 15.35 15.35 0 0 1 0 2.78 5.81 5.81 0 0 1-.82 1.13l.16.62s-.65.79-1 1.31.29.41.29.41a17.19 17.19 0 0 1 2.94-.79c.56 0 2.55.34 3.3.48a9.89 9.89 0 0 0 2.94-.62c.26-.07 2.06.41 2.68.45s5.17-.14 5.89-.28 1.28-.89 1-1.07-2-2.68-2-3.27a7 7 0 0 1 .1-2.1 13.32 13.32 0 0 0-.09-5.16c-.46-2.17-3.11-11.79-3.74-12.19s-8.6 1.1-8.89 1.9z"/><path class="cls-5" d="M54.16 106.06l2.3 5.94 3.83-6.91-6.13.97z"/><path class="cls-10" d="M53.44 106.65l2.4 7.87 1.24-2.27-2.18-6.81-1.46 1.21z"/><path class="cls-7" d="M58.93 105.73s-6.26 13.4-6.46 15 2.42.69 2.42.69l6.81-17.05s-2.29.33-2.77 1.36zm-6.47 16.91a16.32 16.32 0 0 1 0 3.09c-.19.78-1 2.85-1 2.85s1.57.19 2 .26 1.38-5.64 1.38-5.64z"/><path class="cls-11" d="M62.41 114.18a5.54 5.54 0 0 1 .52 2.2c0 1.17-.07 3.64-.52 4.09s1.09-.38 1.28-1 .56-2.68 0-3.64a8.33 8.33 0 0 0-1.28-1.65zm-10.63 3.21a8.8 8.8 0 0 0-.31 1.26 4.73 4.73 0 0 0 .15 1.95v.66l.87-.55s-.57 0-.52-1.39a5.87 5.87 0 0 0-.19-1.93zm4.63 8.68a6.92 6.92 0 0 0 1-1.16l.48-2.28-1.32.51-.75 3.23s.18.07.59-.3z"/><path class="cls-12" d="M50.52 120.46s15.55-.38 15.81 0a20.41 20.41 0 0 1-.36 2.87l-15.48-.26z"/><path class="cls-13" d="M64.81 121h-4.37c-.87 0-3.15 0-3.15.24s7.68.19 7.68.19h1.28l.06-.4zm-14.06 1.48h3.12a4.38 4.38 0 0 0 1.22-.1c0-.08-4.24-.08-4.24-.08h-.33v.16z"/><path class="cls-14" d="M52.77 106.72s.78.44.66.91-.32.59.53.75a22.08 22.08 0 0 0 5-.39c.69-.21 2.66-1.33 2.77-1.83s.87-1.37.67-1.82-9.46.66-9.63 2.38z"/><path class="cls-15" d="M61.71 104.85a19.71 19.71 0 0 1-2 1.38 17.59 17.59 0 0 1-3.3.69c-.81.05-.89 0-.47.29a2.87 2.87 0 0 0 1.83 0 8 8 0 0 0 2.53-.9c.62-.43 1.57-1.31 1.41-1.46z"/><path class="cls-6" d="M32.79 84s-.25 12.15.34 15.72a9.88 9.88 0 0 0 2.59 5.41s-.52-12.21-.28-16.8.6-10.51.6-10.51z"/><path class="cls-5" d="M33.81 83.85S34.57 93.73 35 97s6.81 9.28 14.44 9.49 24.6-.88 27.48-14.9c1.13-3.84 1.8-7.37 1.8-7.37s.83 2.47 1.86 2.52 1.23-1.07 2.68-3.54c1.86-3.62 1.45-8.37-.41-9.4s-5.36 2.06-5.36 2.06.62-8.14-2.47-11.23-14.88-8.84-26.22-7.19-16 12.38-16.41 14.41.31 8.46 1.42 12z"/><g class="cls-16"><path class="cls-17" d="M34.21 95.18s-.46 2.68 3 1.65 4.12-3.06 7-3.28 6.2 2.73 7.22 3.52c3.06 2 9.34 2 13.47.14 6.58-2.39 13.75-13 13.75-13s0 11-5 16.5c-2.81 3.09-11.48 5.8-20.25 6.8-4.74.62-14.23-2.42-19.22-7.62z"/><g class="cls-18"><path class="cls-19" d="M64 91.85s-6.3 10.09-9.09 12.39a32.77 32.77 0 0 1-9.62 4.76c-1.39.32 14.37 1.26 16.51 1s16.18-4.56 18-9 2.47-16 1.66-17.95-16.81 7.76-17.46 8.8z"/></g></g><path class="cls-20" d="M55.94 82.14s-1.31.15-1.34 1 .44 1.72.49 3-.72 2.3-.72 4.05.89 3.34 2.43 3.34c1.31 0 3.06-.35 3.73-2s.84-6.17-2.07-8.76a3.26 3.26 0 0 0-2.52-.63zm-18.33 1.54s-1.17 1.13-1.07 4 .69 4.68 1.07 4.92 1.73.64 2-1.64c0-.64-.22-1.38-.17-2a11 11 0 0 0-.13-3.63c-.46-1.82-1.22-1.89-1.7-1.65z"/><path class="cls-21" d="M60.94 43.38A1.9 1.9 0 0 1 63 41.73c1.86.1 5.36.31 6.7 1.65s2.58 2.08 2.17 3.31-7-1.14-7.33-1.35-2.78.21-3.6-1.96z"/><path class="cls-7" d="M56.35 46.69a3.19 3.19 0 0 1 3-3.83c1.44 0 6.19-.41 7.43.62s4.47 2.93 4.74 4.44.41 2.89.41 2.89-15.13-1.64-15.58-4.12z"/><path class="cls-6" d="M60.94 46.71s-31.12-1.65-34 23.51C25.7 77.83 28.79 97 28.79 97s9.09-24.35 20.37-28.2a19.59 19.59 0 0 0-4.34 13.54s20.89-14.06 23.37-13.65c1 2.47.44 8.61.49 11.91a26.73 26.73 0 0 1 4-4.51s4.23 2.73 4.74 7.08c.41-5.52 0-7.08 0-7.08s1.11-1.89 4.43-2.47c.89 0 1.55.23 2.17 2.08s.36 2.42.36 2.42a31.09 31.09 0 0 0-.28-7.69c-.59-3.8-3.85-23.56-23.16-23.72z"/><path class="cls-6" d="M73.64 73.47s3.58 12.22 3.14 17.17S75 101 75.63 101s1.15-2.25 2.52-5.87 2.28-11.17 1.17-15.17a64.08 64.08 0 0 0-3.69-9.2z"/><path class="cls-20" d="M59 85a23.86 23.86 0 0 0 .93-2.68l.35 1.06-.64 1.36-1.18.83m-.36-1.51a23.85 23.85 0 0 0 .9-2.68l.35 1.06-.64 1.36-1.18.83m-20.92 1.65a19.24 19.24 0 0 1-.75-2.16l-.28.86.52 1.1 1 .67m.25-1.24a19.24 19.24 0 0 1-.75-2.16l-.28.86.52 1.1 1 .67"/><path class="cls-22" d="M63.69 40.89c-.66-2.41-3.05-7.47-6.13-7s-10.8-1-11.27 1.57-.09 3.37.67 4.22 0 4.58 0 4.94a4.44 4.44 0 0 0 3.36 3.09c2.25.28 6 1.79 8.08.53s5.29-7.35 5.29-7.35z"/><g class="cls-23"><path class="cls-24" d="M51.67 48.74s5.34.1 7.71-2.64a32.1 32.1 0 0 1 5.73-5 33.73 33.73 0 0 1-3.77 5.9c-1.91 2.17-3.78 3.47-6.45 3.2A14 14 0 0 1 50 48.74z"/></g><path class="cls-22" d="M65.12 44.39c-.15 2.49.51 8.06 3.57 8.58s9.93 4.36 11.18 2.11 1.16-3.17.71-4.21 1.46-4.34 1.58-4.68a4.44 4.44 0 0 0-2.2-4c-2-1-5.1-3.61-7.49-3.08s-7.35 5.28-7.35 5.28z"/><g class="cls-25"><path class="cls-24" d="M63.47 50.72s7.14 3.62 12 .7 5.72-7.25 6.56-8.38 2 7.62-1.45 11.13-6.3 4.7-10.08 2.42-6.38-4.59-7.03-5.87z"/></g><path class="cls-26" d="M71 48.74s-2.65-1-2.45-2.11 2.53-.07 2.53-.07m-15.82-5.28s5.72 1.51 5.2 3.16-5.51 0-5.51 0"/><path class="cls-4" d="M60.79 41.94c-1.22 2.95-1.67 4.87-.95 5.93s4.52 2.54 6.31 1.82 2.59-.62 3.32-3.18a4.3 4.3 0 0 0-.68-4.06s-7.16-2.56-8-.51z"/><g class="cls-27"><path class="cls-24" d="M70.1 43.12S68.55 47.2 67.16 48a21.17 21.17 0 0 1-4.45 1.53s2.62 2.13 4.11 1.56 3.95-3.65 4.14-5.66-.86-2.31-.86-2.31z"/></g><path class="cls-28" d="M64.72 41.34a14.07 14.07 0 0 0-.9 3 10.1 10.1 0 0 0 0 2.31 12 12 0 0 1 .52-2.8c.31-.48.76-2.26.89-2.35s-.51-.16-.51-.16z"/><path class="cls-6" d="M67.58 41.34a14 14 0 0 1 4.75-2.89 4.18 4.18 0 0 1 1.73 0c.28-.68.61-1.59 1-2.8-.75 1-5.08 3.79-7.95 5.57zm23.59 3.04c-3.92-6.42-8.36-5.75-10.93-5.64a16.31 16.31 0 0 0-3.76.64c.69.36 1.36.78 2 1.18s1.25.77 1.77 1a4.62 4.62 0 0 1 2.25 2.62 4.22 4.22 0 0 1 .3 2.21 5.28 5.28 0 0 1-.29.61c-.26.52-.66 1.31-1 2.07-.46 1.19-.35 1.5-.35 1.51.56 1.27.6 2.42-.74 4.82a1.89 1.89 0 0 1-.76.75A32.74 32.74 0 0 1 83.37 64a45.55 45.55 0 0 1 1.47 6.05v.19a31.53 31.53 0 0 1 .34 7.25 2.1 2.1 0 0 1-.08.79c0 .31 0 .62-.05.93a12 12 0 0 1-1.23 4.28c-.38.65-.66 1.19-.92 1.67a9 9 0 0 1-.9 1.62 1.71 1.71 0 0 1-1.46.67h-.15a31.88 31.88 0 0 1-1.58 7.89l-.37 1c.32 1.4.63 2.57.89 3.36 2.21 6.63 9 6.09 9 6.09a6.46 6.46 0 0 1-2.62-4.79C85.4 97.74 94 88.77 97.77 79.48s-2.68-28.67-6.6-35.1z"/></svg>